<svg width="95" height="28" viewBox="0 0 95 28" fill="none" xmlns="http://www.w3.org/2000/svg">
<path fill-rule="evenodd" clip-rule="evenodd" d="M75.2437 22.474C75.9541 21.6609 76.6144 20.9051 77.3595 20.5798C77.5262 17.8226 78.8779 15.2645 80.2896 12.9961C80.42 12.7766 80.5807 12.5897 80.7388 12.4058C80.8716 12.2514 81.0026 12.0991 81.1121 11.9314C82.1403 10.3528 83.6139 8.4805 85.3275 8.4805C86.0472 8.4805 86.9382 8.70078 87.6579 9.36159C87.9663 9.65529 88.0691 9.80214 88.172 10.0958C88.686 11.5276 88.8917 11.7846 89.6799 11.7846C89.8799 11.7846 90.1162 11.7679 90.4049 11.7476C90.8584 11.7156 91.4412 11.6745 92.2159 11.6745C93.8267 11.6745 94.8891 12.3353 94.8891 12.9594C94.8891 13.3265 94.6149 13.4734 94.2722 13.6202C94.0574 13.7024 93.9525 13.7846 93.856 13.8602C93.737 13.9534 93.6308 14.0366 93.3469 14.0975C92.9371 14.1677 92.5586 14.2799 92.174 14.394C91.7546 14.5184 91.3278 14.645 90.8451 14.7216C90.3653 14.795 89.9198 14.795 89.5771 14.795C89.44 14.795 89.3372 14.9051 89.2686 15.1988C88.3776 19.0903 87.2124 22.1741 85.0876 24.6706L85.0168 24.7527C84.2043 25.6971 83.1608 26.91 81.729 26.91C81.352 26.91 80.9408 26.7999 80.5981 26.6163C79.3384 25.9589 78.2919 25.1385 77.9174 24.3087C76.7937 25.7274 75.1691 27.4607 73.4697 27.4607C73.264 27.4607 73.0584 27.424 72.8528 27.3873C71.5848 27.0936 70.6252 26.4694 70.0083 25.7719C69.7482 25.4794 69.567 25.2185 69.4424 24.9453C68.3658 26.1975 66.9696 27.4607 65.5188 27.4607C65.3132 27.4607 65.1075 27.424 64.9019 27.3873C63.6339 27.0936 62.6743 26.4694 62.0574 25.7719C61.4381 25.0753 61.2664 24.5585 61.2391 23.6258C60.2419 24.5457 58.8608 25.5815 56.6083 26.9467C56.1285 27.2404 55.683 27.3505 55.1004 27.3505C54.0722 27.3505 52.9413 26.8733 51.3648 25.9922C50.5081 25.5149 49.8912 24.487 49.5142 23.3122C49.24 22.4678 49.0687 21.5867 49.0687 20.7424C49.0687 20.2284 49.1372 19.7511 49.2743 19.2372C49.6932 17.6741 50.3375 16.209 51.1327 14.8196L51.0928 14.8074C50.8296 14.7269 50.5725 14.6481 50.4052 14.6481C50.2339 14.6481 48.9316 15.3457 47.972 16.0065C45.1275 17.9522 42.5572 20.8892 41.6661 25.2212C41.529 25.8821 41.2549 26.3593 40.7408 26.8366C40.5009 27.0568 40.2267 27.1303 39.9868 27.1303C39.4385 27.1303 39.0615 26.8733 38.4446 26.139C38.0677 25.6985 37.7935 25.1111 37.7935 24.6706C37.7935 23.8431 38.2758 23.106 38.754 22.3751C39.0821 21.8738 39.4083 21.3753 39.5756 20.8525C40.3295 18.5396 41.0492 16.2268 41.6318 13.8772C41.8375 13.0695 41.9746 12.2251 41.9746 12.0416C41.9746 11.8807 41.9015 11.7634 41.8264 11.6429C41.7473 11.516 41.6661 11.3856 41.6661 11.1972C41.6661 10.6832 42.5229 10.206 43.4482 10.206C44.2022 10.206 44.8191 10.6098 44.9219 10.7934C45.3674 11.601 45.4702 12.2619 45.4702 12.7758C45.4702 13.2457 45.4263 13.5512 45.4088 13.6734C45.4044 13.7039 45.4017 13.723 45.4017 13.7303C45.4017 13.8038 45.4359 13.8405 45.4702 13.8405C45.5387 13.8405 45.6416 13.767 45.8129 13.6202C46.9096 12.7391 49.0344 11.2339 50.1653 11.2339C51.129 11.2339 52.1456 11.5174 52.8663 12.1839C53.5561 11.2509 54.2985 10.3495 55.0661 9.47173C55.8201 8.62735 57.1566 7.74626 58.973 7.74626C59.6584 7.74626 60.5152 7.89311 61.2692 8.18681C62.3316 8.59064 62.64 9.692 62.64 10.6465C62.64 12.115 61.6119 14.1342 60.8236 15.1621C58.6988 17.9522 56.2313 20.7424 53.2155 22.6881C52.8728 22.9084 52.8385 22.9451 52.8385 23.1286C52.8385 23.3489 53.1469 24.0464 53.4554 24.1933C53.661 24.3034 53.8666 24.3769 54.1065 24.3769C54.9938 24.3769 56.0597 23.666 56.5995 23.306C56.6852 23.2489 56.7576 23.2006 56.8139 23.1654C57.9353 22.4678 58.8753 21.5965 59.77 20.7672L59.77 20.7672C60.5706 20.0251 61.3348 19.3167 62.1602 18.7966C62.1994 18.7714 62.2377 18.7481 62.2753 18.7267C62.3234 18.595 62.3718 18.4636 62.4202 18.3323L62.421 18.3299C62.4945 18.1304 62.5679 17.9312 62.64 17.732C64.1479 13.6569 67.0953 7.89311 69.6656 3.23067C69.7552 3.07361 69.8428 2.81078 69.9461 2.50134C70.2771 1.50882 70.7681 0.0367121 71.996 0.0367121C72.2281 0.0367121 72.4322 0.0267519 72.6279 0.0172075C72.8079 0.00842785 72.9806 0 73.1612 0C73.8467 0 74.4635 0.293697 74.6006 0.624106C74.772 1.02794 74.9091 1.35835 74.9091 1.76218C74.9091 2.23944 74.772 2.67999 74.5321 3.08382C73.7582 4.40109 72.9605 5.69062 72.1678 6.97214C69.8013 10.798 67.479 14.5523 65.9643 18.7599C65.8415 19.1004 65.7141 19.4181 65.5895 19.7287C65.1232 20.8918 64.6963 21.9564 64.6963 23.7527C64.6963 24.4136 64.8676 24.5604 65.0047 24.5604C65.0733 24.5604 65.1761 24.5237 65.2789 24.4503C66.0427 23.9048 66.686 23.1685 67.2928 22.474C68.0732 21.5807 68.7932 20.7566 69.6315 20.4966C69.8436 19.7644 70.1079 19.0468 70.371 18.3325C70.4448 18.1322 70.5185 17.9321 70.5909 17.732C72.0988 13.6569 75.0461 7.89311 77.6165 3.23067C77.7061 3.07361 77.7937 2.81078 77.8969 2.50134C78.228 1.50882 78.719 0.0367121 79.9469 0.0367121C80.179 0.0367121 80.3831 0.026752 80.5788 0.0172075C80.7587 0.00842789 80.9315 0 81.1121 0C81.7975 0 82.4144 0.293697 82.5515 0.624106C82.7229 1.02794 82.8599 1.35835 82.8599 1.76218C82.8599 2.23944 82.7229 2.67999 82.483 3.08382C81.709 4.40108 80.9114 5.69061 80.1187 6.97213C77.7522 10.798 75.4298 14.5523 73.9152 18.7599C73.7924 19.1004 73.665 19.4181 73.5404 19.7287C73.0741 20.8918 72.6472 21.9564 72.6472 23.7527C72.6472 24.4136 72.8185 24.5604 72.9556 24.5604C73.0242 24.5604 73.127 24.5237 73.2298 24.4503C73.9936 23.9048 74.6369 23.1685 75.2437 22.474ZM34.8291 8.01533C34.6086 8.03617 34.1802 8.07667 33.5439 8.07667C32.55 8.07667 31.5562 7.92982 31.0421 7.26901C30.8708 7.04873 30.8708 6.79175 30.8708 6.46134C30.8708 5.80052 30.9736 5.06628 31.1449 4.88272C31.3163 4.69916 31.5219 4.47888 31.9332 4.47888C32.2162 4.47888 32.372 4.51862 32.5611 4.56685C32.8529 4.64126 33.2239 4.73587 34.2636 4.73587C36.0457 4.73587 38.5132 4.33204 39.1986 4.18519C40.7751 3.85478 42.4544 3.59779 44.305 3.59779C45.8129 3.59779 47.972 5.1397 47.972 5.76381C47.972 6.42463 47.7321 6.82846 47.2523 7.19558C47.0467 7.34243 46.4641 7.59942 46.1214 7.59942C45.7101 7.59942 45.4702 7.34243 45.2303 7.08545C45.1275 6.97531 44.4421 6.71832 44.2707 6.71832C42.7628 6.71832 41.1178 6.9386 39.747 7.26901C39.8155 7.37914 39.8498 7.48928 39.8498 7.5627C39.8498 7.66523 39.807 7.74485 39.5841 8.15981C39.408 8.48777 39.1193 9.02521 38.6503 9.94899C36.4227 14.3544 34.9833 18.5763 34.0237 23.973C33.9209 24.5604 33.8866 25.3314 33.8866 26.0656C33.8866 26.91 33.5096 27.424 32.7557 27.424C32.2416 27.424 31.4876 27.167 30.5623 26.5796C30.0825 26.2859 29.9454 25.7352 29.9454 25.2212C29.9454 24.6706 30.0482 24.1199 30.0825 23.973C31.3505 18.5763 32.7899 13.6936 34.8805 8.88434C35.1204 8.33366 35.1546 8.22352 35.1546 8.1501C35.1546 8.03996 35.0861 8.00325 34.9833 8.00325C34.9568 8.00325 34.9055 8.00811 34.8291 8.01532L34.8291 8.01533ZM58.9387 11.0503C58.9387 11.3807 58.8359 11.601 58.4246 12.2986C58.245 12.6032 58.1766 12.7748 58.1136 12.9326C58.0323 13.1361 57.9602 13.3167 57.6707 13.7303C56.6768 15.1621 55.4431 16.5939 53.8323 18.1725C53.3868 18.613 53.3183 18.613 53.2497 18.613C53.2154 18.613 53.1469 18.5763 53.1469 18.5029C53.1469 18.3928 53.1812 18.2459 53.5239 17.475C54.5863 15.0887 55.8886 13.5101 57.328 11.9681C58.1162 11.1238 58.596 10.8301 58.7674 10.8301C58.8702 10.8301 58.9387 10.8668 58.9387 11.0503ZM85.396 12.115C85.3618 12.0416 85.3275 12.0049 85.2932 12.0049C85.1904 12.0049 84.9848 12.0416 84.7106 12.4454C83.0313 14.795 80.4953 19.0536 80.4953 21.9172C80.4953 22.1007 80.5295 22.578 80.6666 22.9818C80.7694 23.2755 81.0436 23.7528 81.215 23.7528C81.4206 23.7528 81.6605 23.6426 82.0718 22.9818C82.1171 22.9089 82.1625 22.836 82.2079 22.7632C84.0137 19.8638 85.8073 16.9839 85.8073 13.5101C85.8073 13.1062 85.8073 12.5923 85.6702 12.4821C85.4989 12.3353 85.4303 12.2252 85.396 12.115Z" fill="#1A1A1A"/>
<rect y="1.13133" width="24.6305" height="26.3293" rx="2.11236" fill="#066AFF"/>
<path d="M20.274 4.55415H15.0708C14.4332 4.55415 13.9163 5.10671 13.9163 5.78833V14.839C13.9163 15.5207 14.4332 16.0732 15.0708 16.0732H20.274C20.9117 16.0732 21.4286 15.5207 21.4286 14.839V5.78833C21.4286 5.10671 20.9117 4.55415 20.274 4.55415Z" fill="white"/>
<path d="M9.55972 4.55415H4.35652C3.71888 4.55415 3.20197 5.10671 3.20197 5.78833V21.4214C3.20197 22.103 3.71888 22.6556 4.35652 22.6556H9.55972C10.1974 22.6556 10.7143 22.103 10.7143 21.4214V5.78833C10.7143 5.10671 10.1974 4.55415 9.55972 4.55415Z" fill="white"/>
</svg>
